HIERARCHY
ROOT Hips
{
	OFFSET 0.000000 0.000000 0.000000
	CHANNELS 6 Xposition Yposition Zposition Zrotation Yrotation Xrotation 
	JOINT LHipJoint
	{
		OFFSET 0.000000 0.000000 0.000000
		CHANNELS 3 Zrotation Yrotation Xrotation
		JOINT LeftUpLeg
		{
			OFFSET 1.363060 -1.794630 0.839290
			CHANNELS 3 Zrotation Yrotation Xrotation
			JOINT LeftLeg
			{
				OFFSET 2.448110 -6.726130 0.000000
				CHANNELS 3 Zrotation Yrotation Xrotation
				JOINT LeftFoot
				{
					OFFSET 2.562200 -7.039590 0.000000
					CHANNELS 3 Zrotation Yrotation Xrotation
					JOINT LeftToeBase
					{
						OFFSET 0.157640 -0.433110 2.322550
						CHANNELS 3 Zrotation Yrotation Xrotation
						End Site
						{
							OFFSET 0.000000 0.000000 0.000000
						}
					}
				}
			}
		}
	}
	JOINT RHipJoint
	{
		OFFSET 0.000000 0.000000 0.000000
		CHANNELS 3 Zrotation Yrotation Xrotation
		JOINT RightUpLeg
		{
			OFFSET -1.305520 -1.794630 0.839290
			CHANNELS 3 Zrotation Yrotation Xrotation
			JOINT RightLeg
			{
				OFFSET -2.542530 -6.985550 0.000000
				CHANNELS 3 Zrotation Yrotation Xrotation
				JOINT RightFoot
				{
					OFFSET -2.568260 -7.056230 0.000000
					CHANNELS 3 Zrotation Yrotation Xrotation
					JOINT RightToeBase
					{
						OFFSET -0.164730 -0.452590 2.363150
						CHANNELS 3 Zrotation Yrotation Xrotation
						End Site
						{
							OFFSET 0.000000 0.000000 0.000000
						}
					}
				}
			}
		}
	}
	JOINT LowerBack
	{
		OFFSET 0.000000 0.000000 0.000000
		CHANNELS 3 Zrotation Yrotation Xrotation
		JOINT Spine
		{
			OFFSET 0.028270 2.035590 -0.193380
			CHANNELS 3 Zrotation Yrotation Xrotation
			JOINT Spine1
			{
				OFFSET 0.056720 2.048850 -0.042750
				CHANNELS 3 Zrotation Yrotation Xrotation
				JOINT Neck
				{
					OFFSET 0.000000 0.000000 0.000000
					CHANNELS 3 Zrotation Yrotation Xrotation
					JOINT Neck1
					{
						OFFSET -0.054170 1.746240 0.172020
						CHANNELS 3 Zrotation Yrotation Xrotation
						JOINT Head
						{
							OFFSET 0.104070 1.761360 -0.123970
							CHANNELS 3 Zrotation Yrotation Xrotation
							End Site
							{
								OFFSET 0.000000 0.000000 0.000000
							}
						}
					}
				}
				JOINT LeftShoulder
				{
					OFFSET 0.000000 0.000000 0.000000
					CHANNELS 3 Zrotation Yrotation Xrotation
					JOINT LeftArm
					{
						OFFSET 3.362410 1.200890 -0.311210
						CHANNELS 3 Zrotation Yrotation Xrotation
						JOINT LeftForeArm
						{
							OFFSET 4.983000 -0.000000 -0.000000
							CHANNELS 3 Zrotation Yrotation Xrotation
							JOINT LeftHand
							{
								OFFSET 3.483560 -0.000000 -0.000000
								CHANNELS 3 Zrotation Yrotation Xrotation
								JOINT LeftFingerBase
								{
									OFFSET 0.000000 0.000000 0.000000
									CHANNELS 3 Zrotation Yrotation Xrotation
									JOINT LeftHandIndex1
									{
										OFFSET 0.715260 -0.000000 -0.000000
										CHANNELS 3 Zrotation Yrotation Xrotation
										End Site
										{
											OFFSET 0.000000 0.000000 0.000000
										}
									}
								}
								JOINT LThumb
								{
									OFFSET 0.000000 0.000000 0.000000
									CHANNELS 3 Zrotation Yrotation Xrotation
									End Site
									{
										OFFSET 0.000000 0.000000 0.000000
									}
								}
							}
						}
					}
				}
				JOINT RightShoulder
				{
					OFFSET 0.000000 0.000000 0.000000
					CHANNELS 3 Zrotation Yrotation Xrotation
					JOINT RightArm
					{
						OFFSET -3.136600 1.374050 -0.404650
						CHANNELS 3 Zrotation Yrotation Xrotation
						JOINT RightForeArm
						{
							OFFSET -5.241900 -0.000000 -0.000000
							CHANNELS 3 Zrotation Yrotation Xrotation
							JOINT RightHand
							{
								OFFSET -3.444170 -0.000000 -0.000000
								CHANNELS 3 Zrotation Yrotation Xrotation
								JOINT RightFingerBase
								{
									OFFSET 0.000000 0.000000 0.000000
									CHANNELS 3 Zrotation Yrotation Xrotation
									JOINT RightHandIndex1
									{
										OFFSET -0.622530 -0.000000 -0.000000
										CHANNELS 3 Zrotation Yrotation Xrotation
										End Site
										{
											OFFSET 0.000000 0.000000 0.000000
										}
									}
								}
								JOINT RThumb
								{
									OFFSET 0.000000 0.000000 0.000000
									CHANNELS 3 Zrotation Yrotation Xrotation
									End Site
									{
										OFFSET 0.000000 0.000000 0.000000
									}
								}
							}
						}
					}
				}
			}
		}
	}
}
MOTION
Frames: 12
Frame Time: 0.033333
-0.297261 17.724922 5.445102 86.938320 -24.926928 -32.310824 -106.813688 -45.813956 59.394745 -8.707068 2.686266 -44.116169 -31.001816 61.643322 -48.555040 -14.794898 10.402055 11.142987 0.588659 -0.041675 -51.613917 32.954908 -11.261837 -100.718365 67.911057 -73.403792 -107.768008 112.466576 -47.017333 -106.272926 -10.369185 -25.520933 -4.675921 -0.831017 -0.026930 -38.746543 -108.334905 59.804429 -36.154547 -164.771889 73.367811 -161.522175 -136.623848 66.806054 -151.157465 24.268888 16.115560 17.245580 5.989487 -1.567891 -3.497695 -0.019942 -0.030885 0.007010 101.588152 55.628969 -3.621967 -23.469066 78.035777 -56.457275 -72.819313 30.496579 -130.460777 -21.618871 -27.274399 33.794912 -1.862813 27.457357 -5.287182 -0.015524 0.005582 0.003313 0.039246 -0.005856 0.000139 47.797935 60.943265 78.216124 47.928292 17.653863 -176.593995 -1.063535 -53.785317 50.471109 11.370899 -12.917608 15.077997 24.587686 4.383602 -74.154458 0.014869 0.015462 0.047275 0.002305 -0.035493 -0.070006 
-0.450602 18.156261 6.238502 86.230757 -25.272248 -32.275305 -104.666604 -44.704442 56.504464 -10.612237 1.816683 -42.226917 -29.310649 61.274167 -47.522033 -13.286845 21.460514 22.276360 1.618847 0.126448 -53.556690 31.511744 -11.116452 -101.296086 61.939355 -72.617422 -105.760637 108.508219 -52.118447 -117.927282 -15.768637 -21.711165 2.431713 -1.104932 -0.021953 -42.278114 -107.145657 59.343094 -36.109968 -162.726331 75.008009 -158.983896 -133.387755 65.840369 -147.931246 23.121659 16.418072 18.938617 8.918311 2.859296 -7.521691 0.065945 -0.031839 0.029887 95.789500 53.203126 -7.393189 -16.200544 80.954011 -57.993029 -77.051763 38.915819 -134.391361 -15.432364 -33.621192 21.130263 5.666636 26.011890 -1.670068 -0.077690 -0.019183 0.071136 0.009798 0.004999 0.009157 41.715362 58.290963 72.327759 46.561416 17.899507 -173.191722 6.733345 -56.701260 39.720127 6.865878 -12.765982 16.582038 30.832353 -0.706615 -73.239468 -0.007827 -0.006039 0.001259 -0.050217 0.012154 -0.002300 
-0.637947 18.519283 7.041732 87.173947 -24.586995 -32.007867 -101.841308 -45.680376 53.316175 -14.152795 1.913104 -42.298426 -30.224461 61.360674 -46.912839 -5.947238 31.652027 36.990818 2.460648 0.329551 -54.158998 30.180220 -11.178342 -103.143349 54.667340 -72.386183 -101.274667 108.508261 -56.971878 -129.302296 -16.356142 -16.582206 7.153120 -1.402830 0.008288 -44.878280 -104.209037 57.618065 -33.409162 -167.505005 75.660409 -162.820512 -132.533939 65.963575 -147.182048 19.981525 13.779114 18.607512 8.096035 4.769691 -11.377118 0.037826 -0.068576 0.047198 91.179409 49.401037 -9.371246 6.184582 84.336224 -43.673604 -81.343385 45.378283 -136.079811 -1.830932 -44.468442 4.012875 9.103102 18.138407 -5.419907 -0.021210 -0.054232 0.005682 0.062095 0.049098 -0.057056 40.097824 55.239632 69.626504 45.951816 19.195419 -170.724842 13.311746 -56.976065 32.381616 2.368140 -12.709940 18.186194 31.211064 0.436430 -81.126464 -0.032245 0.083651 -0.068634 -0.049039 -0.064851 -0.072111 
-0.828422 18.744682 7.846184 87.859079 -22.525537 -31.976978 -97.504329 -46.184969 51.178779 -16.718385 -0.276079 -43.527943 -35.607306 62.845926 -48.562853 -4.054359 39.693758 43.806439 3.044978 0.394816 -52.582290 28.601298 -12.152643 -105.131478 51.067090 -72.224268 -100.617367 110.975934 -60.090855 -139.329865 -15.847835 -12.137750 12.828266 -1.487023 -0.009604 -45.913863 -102.591485 58.057935 -29.765121 -167.978456 75.614325 -163.082980 -131.513034 66.512198 -145.818920 17.824055 12.702984 17.812226 9.471541 6.050107 -11.483381 0.032593 -0.094414 0.071114 86.419568 49.060092 -10.917388 32.177373 83.918000 -22.740337 -85.837370 50.422058 -138.504473 1.919914 -46.821936 -0.988390 15.512486 12.572877 -3.312529 -0.046836 -0.092542 0.096155 0.046368 0.036028 -0.047328 36.964292 52.737168 65.131862 46.942348 20.612318 -169.161129 19.042569 -56.470978 27.092981 -2.268144 -16.682531 20.373394 27.127296 -6.032646 -78.423140 -0.050831 0.071453 -0.028537 -0.054676 -0.063848 -0.034597 
-1.009552 18.791267 8.627190 88.717170 -21.700295 -32.376503 -93.310663 -46.183820 49.296607 -16.302981 -2.312556 -45.120653 -42.191424 64.233425 -48.973563 -2.189284 38.463132 44.274274 3.156612 0.328221 -49.591044 29.798674 -12.776048 -105.785269 49.701931 -70.552603 -99.091143 109.696607 -59.907928 -141.511835 -18.446224 -10.402759 20.792286 -1.338232 0.069414 -44.204926 -102.915735 57.460728 -28.650898 -170.376899 75.517861 -166.558568 -135.139032 67.008841 -147.880418 16.127876 9.055413 15.221465 9.623992 4.107926 -7.685117 0.027377 -0.108069 0.088137 85.778932 50.398336 -10.102418 50.421010 84.238865 -6.304714 -87.486913 52.751740 -135.612504 1.338885 -49.137336 -7.156517 16.308456 6.944921 0.401174 -0.055973 -0.075521 0.044671 0.077426 0.063583 -0.072874 34.762222 51.128783 63.140963 47.756041 22.627023 -167.802576 24.400575 -58.216675 23.762756 -4.118143 -17.137091 17.169646 17.578257 -1.733964 -82.832591 -0.037480 0.071667 -0.066993 -0.072452 -0.044536 -0.085136 
-1.201800 18.632276 9.376461 89.671218 -21.596159 -33.236278 -90.687449 -47.494933 48.878724 -14.343164 -3.984236 -46.627738 -47.391682 63.951453 -47.504993 -5.607479 31.057319 32.538466 2.746439 0.214301 -46.158857 31.925331 -13.750221 -105.878757 48.783798 -69.960189 -96.302743 111.104398 -57.884597 -140.870231 -22.694292 -9.701136 25.975798 -1.147421 0.136764 -39.847708 -103.879138 57.443281 -28.542400 -172.430539 74.803740 -168.376582 -138.126957 67.855032 -150.416606 13.980425 7.593079 14.709712 11.272988 5.456548 -2.261937 0.107745 -0.033468 0.056953 85.966539 51.835840 -7.387024 37.540047 86.066014 -18.723789 -83.131402 52.289323 -128.170492 -9.648154 -43.352454 -3.775152 18.503847 2.236531 0.066450 -0.068663 -0.078013 0.083025 0.074044 0.034212 -0.037701 33.111276 50.501678 63.938844 49.607353 24.329018 -167.721452 26.151199 -61.501657 25.322728 -4.997373 -14.251224 13.434302 10.760263 12.346466 -86.805128 -0.079806 0.092887 -0.022143 -0.066596 -0.006534 -0.072438 
-1.414283 18.264354 10.099840 91.382790 -22.137999 -34.616860 -88.596976 -48.035405 47.912108 -10.802635 -5.388994 -48.110687 -55.431056 63.757018 -48.401922 -5.809204 21.897143 16.332568 2.127095 0.126794 -41.875169 31.694471 -12.764100 -104.815461 50.878071 -70.236943 -98.568840 110.706838 -56.131579 -134.339045 -24.450367 -9.730161 24.090729 -0.855384 0.145684 -35.303110 -105.823167 56.659059 -30.318671 -177.837870 74.970401 -174.030080 -144.522934 67.917107 -155.850789 11.458426 6.467295 13.540090 12.762310 7.131343 -0.728526 0.046296 -0.069932 0.036241 87.344128 53.164798 -5.852701 40.626142 88.027339 -16.203432 -72.655591 49.432924 -116.506136 -10.271792 -30.794243 -2.844592 18.585692 2.014870 -1.442249 -0.023797 -0.048784 0.020060 0.084597 0.090691 -0.065941 32.891872 51.150545 65.022728 51.925088 25.610784 -168.625320 19.705273 -60.844597 35.063203 2.609281 -10.549424 11.503614 7.814797 29.487574 -83.917305 -0.070987 0.060526 -0.089659 -0.098312 -0.090331 -0.083894 
-1.609642 17.764021 10.777756 91.696492 -22.045523 -35.376346 -88.064099 -48.611008 48.870472 -8.494536 -3.877655 -49.243003 -62.711558 63.056560 -48.008548 -2.698266 19.434667 6.696799 1.292086 0.027515 -37.910151 30.310955 -12.249027 -104.058846 51.963462 -71.927553 -100.955743 112.192972 -53.308091 -128.146766 -21.756270 -13.234486 14.500122 -0.379978 0.057511 -29.973348 -105.397398 57.232174 -29.032193 -177.391844 75.094478 -173.339373 -146.744297 69.302272 -158.206827 11.384083 8.150571 13.470095 14.417010 5.345284 1.506925 0.078362 -0.067002 0.076219 92.188988 54.982892 -0.606666 -89.011989 89.114973 -144.090259 -64.648557 42.459053 -109.346982 -15.299806 -19.320495 -3.200947 18.524767 2.599795 -4.716744 -0.097130 -0.038060 0.064305 0.052030 0.064001 -0.034098 34.931522 52.865640 67.154036 54.153099 27.571524 -170.032338 11.659753 -57.865968 48.190622 7.593781 -11.620787 13.393586 3.496381 39.022469 -89.877356 -0.057649 0.049073 -0.048806 -0.060412 -0.046920 -0.053891 
-1.737138 17.287479 11.378956 91.091263 -22.147743 -35.430693 -88.106535 -49.485868 49.457978 -6.353460 -0.541444 -48.679040 -67.953658 63.219107 -45.801755 -3.532336 20.065949 3.648872 0.848395 0.004650 -33.118652 28.202739 -10.860153 -103.702098 55.510316 -74.209329 -107.292183 113.104778 -50.852493 -122.497145 -20.305534 -13.499182 -1.812354 0.046426 0.005192 -25.037436 -104.598481 57.791972 -28.520616 179.714503 74.653797 -176.875954 -148.822283 70.279639 -160.634777 12.647082 9.385308 14.934848 16.243683 5.526949 -0.464261 0.077096 -0.030221 0.073807 93.481992 55.553378 1.418379 -140.463902 87.322055 164.940917 -58.984316 37.437442 -106.078285 -20.240439 -11.585273 -1.513536 10.951855 8.408332 -8.453884 -0.004687 -0.059528 0.055961 0.087876 0.076264 -0.072190 39.114560 54.250129 70.230317 55.003095 30.030724 -171.057926 5.662671 -53.708659 58.959869 9.529065 -11.075180 17.826827 3.961758 37.006027 -90.472232 -0.065736 0.044313 -0.079602 -0.059598 -0.082636 -0.076694 
-1.794397 16.963957 11.920910 90.639662 -22.250363 -35.918849 -88.987625 -50.389220 49.259319 -3.355929 3.102174 -46.660058 -68.831981 63.524140 -40.952038 -3.001467 18.470061 0.635916 0.384943 0.019989 -28.863989 26.268740 -9.683022 -104.399731 62.433048 -76.862862 -117.279999 115.051145 -50.107274 -119.038071 -16.435133 -12.739049 -11.965339 0.527114 -0.097798 -21.320458 -104.183581 58.505889 -28.297082 175.262194 74.234757 178.925817 -149.834994 71.082213 -160.903087 12.209958 9.692546 16.329111 16.775974 4.112291 -2.335575 0.048299 -0.051034 0.025515 94.948088 56.034579 4.265200 -165.333260 85.293283 140.967945 -53.591904 34.379735 -102.831020 -22.987742 -5.989556 -2.789795 4.136183 11.575610 -11.602485 -0.044766 -0.045827 0.054253 0.039269 0.052507 -0.083336 46.436231 56.050729 75.886458 54.643214 33.245904 -172.330496 1.250224 -49.455498 67.064473 8.056321 -14.074741 20.635307 3.569339 35.837013 -87.628217 -0.001954 0.082939 -0.044713 -0.074851 0.003532 -0.007889 
-1.838523 16.805946 12.465272 89.099341 -22.225778 -36.380997 -89.164610 -49.991775 49.525738 0.242176 6.782299 -45.453506 -69.065536 64.537861 -35.088921 -4.573746 16.832491 -5.232003 -0.009828 0.016144 -24.129426 25.982877 -9.480716 -105.268369 64.553138 -77.324804 -123.163117 116.208196 -51.181310 -118.418955 -10.782506 -10.384114 -18.470834 0.856279 -0.209884 -18.877341 -104.851231 59.958736 -29.062827 177.068131 73.172958 179.845350 -151.780676 71.421061 -162.827282 12.012127 8.900878 16.112743 16.981242 3.240357 0.582663 -0.018421 0.017735 0.034822 93.804502 56.534418 3.365829 167.386320 82.646263 115.644130 -49.917603 31.355782 -98.877140 -25.221825 -3.242731 0.132717 2.445720 18.500663 -14.428260 -0.022522 -0.047665 0.067209 0.043244 0.052603 -0.015988 52.493188 57.469799 82.085707 54.338038 36.615998 -175.161375 -6.498198 -49.331863 77.357529 3.342743 -9.506059 17.798108 8.655431 36.708091 -82.525851 -0.044221 0.006122 -0.013477 0.005086 -0.075968 -0.049183 
-1.915033 16.770143 13.051054 88.067272 -22.039771 -36.561800 -89.155509 -49.025881 48.614457 5.574311 9.442250 -43.578603 -71.279166 65.958833 -32.113691 -3.363394 15.511514 -8.361965 -0.410303 0.061897 -20.630443 26.215543 -9.878555 -105.195303 60.381587 -75.402333 -121.319449 113.956906 -51.864203 -116.986633 -7.133707 -9.569403 -22.123676 0.878751 -0.115939 -18.598855 -106.947921 61.160105 -30.114135 -177.972585 72.138542 -176.566571 -151.829011 71.924207 -163.277091 11.019109 5.387407 15.437772 16.814487 -1.707959 1.078585 0.043128 -0.046281 0.020341 95.265564 56.625379 4.727903 155.129545 79.533046 105.423636 -47.250624 29.730199 -95.570627 -24.512248 1.824665 9.820077 1.318607 22.850325 -13.876723 -0.010333 -0.017789 0.032318 0.036850 0.020526 -0.026071 57.038417 59.264506 86.995936 55.584709 40.364811 -178.147788 -14.759558 -50.818797 88.292827 0.263801 -6.258775 24.433861 11.807338 35.177793 -74.195051 -0.000026 0.022127 -0.010550 -0.049903 -0.009115 0.007022 
